<svg xmlns="http://www.w3.org/2000/svg" xmlns:cc="http://creativecommons.org/ns#" xmlns:dc="http://purl.org/dc/elements/1.1/" xmlns:rdf="http://www.w3.org/1999/02/22-rdf-syntax-ns#" height="129" width="237" fill="#000000" version="1.1" style=""><rect id="backgroundrect" width="100%" height="100%" x="0" y="0" fill="none" stroke="none" class="" style=""/><g class="currentLayer" style=""><title>Layer 1</title><g id="svg_1" class=""><path d="m19.645778563197272,0.00000877256679422486 h193.5918668023421 c6.321882984020018,0 9.910181852719155,5.2919209610642035 11.447780216010745,11.437190225061617 l6.8344727072190885,28.336766104207314 v54.11314568700371 h1.0251794463981452 c2.5629486159953627,0 4.784113814422799,2.2191155227598642 4.784113814422799,4.7796728504763895 v4.950479156107537 c0,2.731192827042043 -2.2211651984274376,4.7796728504763895 -4.784113814422799,4.7796728504763895 h-3.7589343680246547 c-2.2211651984274376,2.5605573277165274 -5.296703537621873,4.096960046868696 -8.885002406321009,4.096960046868696 h-13.839922526374957 c-1.5377691695972189,9.559345700952779 -10.080988158350305,16.899746685451323 -20.161976316700606,16.899746685451323 s-18.62471956602028,-7.340400984498547 -20.332782622331752,-16.899746685451323 h-92.60776278709534 c-1.7085754752283648,9.559345700952779 -10.080988158350305,16.899746685451323 -20.161976316700606,16.899746685451323 c-10.251794463981451,0 -18.62471956602028,-7.340400984498547 -20.332782622331752,-16.899746685451323 h-12.814743079976814 c-3.41732175676236,0 -6.6636664015879425,-1.5355486876240136 -8.714025294384232,-4.096960046868696 h-6.151076678388871 c-2.5629486159953627,0 -4.784113814422799,-2.048480023434348 -4.784113814422799,-4.7796728504763895 v-4.950479156107537 c0,-2.5605573277165274 2.2211651984274376,-4.7796728504763895 4.784113814422799,-4.7796728504763895 h3.41732175676236 v-82.44991179121101 c0,-6.31607556962856 5.1258972319907254,-11.437190225061617 11.447951022316376,-11.437190225061617 zm11.78956363357867,13.144228443539296 h34.68563648451704 c2.2211651984274376,0 4.100717785592581,1.8778445241088317 4.100717785592581,4.096960046868696 v34.994795897709416 c0,2.2191155227598642 -1.879552587165143,4.096789240563064 -4.100717785592581,4.096789240563064 h-34.68563648451704 c-2.2211651984274376,0 -4.100717785592581,-1.8776737178032006 -4.100717785592581,-4.096789240563064 v-34.994795897709416 c0,-2.2191155227598642 1.879552587165143,-4.096960046868696 4.100717785592581,-4.096960046868696 zm48.526071429808894,0 h34.85644279014819 c2.2211651984274376,0 4.100717785592581,1.8778445241088317 4.100717785592581,4.096960046868696 v34.994795897709416 c0,2.2191155227598642 -1.879552587165143,4.096789240563064 -4.100717785592581,4.096789240563064 h-34.85644279014819 c-2.2211651984274376,0 -4.100717785592581,-1.8776737178032006 -4.100717785592581,-4.096789240563064 v-34.994795897709416 c0,-2.2191155227598642 1.879552587165143,-4.096960046868696 4.100717785592581,-4.096960046868696 zm48.69687773544003,0 h34.68563648451704 c2.2211651984274376,0 4.100717785592581,1.8778445241088317 4.100717785592581,4.096960046868696 v34.994795897709416 c0,2.2191155227598642 -1.879552587165143,4.096789240563064 -4.100717785592581,4.096789240563064 h-34.68563648451704 c-2.2211651984274376,0 -4.100717785592581,-1.8776737178032006 -4.100717785592581,-4.096789240563064 v-34.994795897709416 c0,-2.2191155227598642 1.879552587165143,-4.096960046868696 4.100717785592581,-4.096960046868696 zm56.04325694063567,0 h24.433842020535593 c2.5629486159953627,0 3.929911479961432,2.219286329065495 4.4425012031605045,4.779843656782021 l5.80946406712658,21.849542616336333 v28.507572409838453 c0,2.5605573277165274 -2.0503588927962904,4.7796728504763895 -4.4425012031605045,4.7796728504763895 h-30.242964475050904 c-2.5629486159953627,0 -4.4425012031605045,-2.2191155227598642 -4.4425012031605045,-4.7796728504763895 v-50.35711502617479 c0,-2.5605573277165274 1.879552587165143,-4.779843656782021 4.4425012031605045,-4.779843656782021 zm-131.90687758670967,86.03513614640879 c5.296703537621873,0 9.73920474078238,4.438401851825358 9.73920474078238,9.730152006583927 c0,5.2919209610642035 -4.4425012031605045,9.730152006583927 -9.73920474078238,9.730152006583927 c-5.467680649558652,0 -9.73920474078238,-4.438231045519727 -9.73920474078238,-9.730152006583927 c0,-5.291750154758572 4.271524091223727,-9.730152006583927 9.73920474078238,-9.730152006583927 zm133.1025217261277,0 c5.296703537621873,0 9.73920474078238,4.438401851825358 9.73920474078238,9.730152006583927 c0,5.2919209610642035 -4.4425012031605045,9.730152006583927 -9.73920474078238,9.730152006583927 c-5.467680649558652,0 -9.73920474078238,-4.438231045519727 -9.73920474078238,-9.730152006583927 c0,-5.291750154758572 4.271524091223727,-9.730152006583927 9.73920474078238,-9.730152006583927 z" fill-rule="evenodd" id="svg_2"/></g></g></svg>