<svg height='300px' width='300px'  fill="#000000" xmlns="http://www.w3.org/2000/svg" viewBox="0 0 64 64" x="0px" y="0px"><g><path d="M36.307,54H31.9A5.009,5.009,0,0,1,27,58h-.807l-.75,2H22v2H42V60H38.557Z"></path><path d="M32,52H56a2,2,0,0,0,2-2V48H32Z"></path><path d="M56,18V44H54V18h-.667L52,19V43a1,1,0,0,1-1,1H44V42h6V20.5l-4.4,3.3a1,1,0,0,1-1.586-.965L44.82,18H38V16h3.028a4.949,4.949,0,0,1-.926-2H12V12H40V7a5,5,0,0,1,.1-1H12a2,2,0,0,0-2,2V42h.667L12,41h0V17a1,1,0,0,1,1-1H23v2H14V39.5l4.4-3.3a1,1,0,0,1,1.586.965L19.181,42H22V33a5.006,5.006,0,0,1,5-5h1.026A4.948,4.948,0,0,1,27,25V20.974A4.977,4.977,0,0,1,25,17a1,1,0,0,1,1-1h6a5.006,5.006,0,0,1,5,5v4a4.948,4.948,0,0,1-1.026,3H37a5.006,5.006,0,0,1,5,5V44H40V33a3,3,0,0,0-3-3H27a3,3,0,0,0-3,3v9h2V34h2v8.1A5.009,5.009,0,0,1,31.89,46H58V17.9a5,5,0,0,1-1,.1ZM20,8h2v2H20ZM16,8h2v2H16ZM12,8h2v2H12ZM38,44H36V34h2Z"></path><path d="M30,53V47a3,3,0,0,0-3-3H18a1,1,0,0,1-.986-1.165L17.6,39.3l-6,4.5a1,1,0,0,1-.6.2H7a3,3,0,0,0-3,3v6a3,3,0,0,0,3,3H27A3,3,0,0,0,30,53Zm-8-6h5v2H22ZM7,47H20v2H7Zm0,4H27v2H7Z"></path><path d="M8,42V14a2,2,0,0,0-2,2V42.1A5,5,0,0,1,7,42Z"></path><path d="M32,18H27.171a3.011,3.011,0,0,0,1.286,1.562c.015.008.031.011.046.019a3.126,3.126,0,0,0,.724.309l.028.007A2.813,2.813,0,0,0,30,20h4.829A3.006,3.006,0,0,0,32,18Z"></path><path d="M57,4H45a3,3,0,0,0-3,3v6a3,3,0,0,0,3,3h1a1,1,0,0,1,.986,1.165L46.4,20.7l6-4.5A1,1,0,0,1,53,16h4a3,3,0,0,0,3-3V7A3,3,0,0,0,57,4ZM44,7h4V9H44Zm14,6H44V11H58Zm0-4H50V7h8Z"></path><path d="M29,21.9V25a3,3,0,0,0,6,0V22H30A5,5,0,0,1,29,21.9Z"></path></g></svg>