<svg height='300px' width='300px'  fill="#000000" xmlns="http://www.w3.org/2000/svg" xmlns:xlink="http://www.w3.org/1999/xlink" version="1.1" x="0px" y="0px" viewBox="0 0 100 100" enable-background="new 0 0 100 100" xml:space="preserve"><path d="M91.464,19.537L84,27h-8.105L47.852,52.707C48.694,56.523,45.773,60,42,60c-3.314,0-6-2.686-6-6  c0-3.91,3.758-6.957,7.779-5.701l6.992-6.41C48.308,40.081,45.286,39,42,39c-8.271,0-15,6.729-15,15s6.729,15,15,15  c8.455,0,15.74-7.147,14.858-16.41l5.21-4.776C66.248,61.348,56.049,75,42,75c-11.58,0-21-9.42-21-21s9.42-21,21-21  c5.036,0,9.634,1.812,13.252,4.782l4.461-4.089C54.97,29.541,48.785,27,42,27c-14.887,0-27,12.113-27,27s12.113,27,27,27  C61.288,81,74.43,61.21,66.844,43.437l4.614-4.229c6.824,13.531,3.554,29.65-7.72,39.558l4.946,9.893  c0.741,1.482,0.141,3.284-1.342,4.025c-1.469,0.734-3.278,0.153-4.025-1.342l-4.5-8.999c-10.427,6.211-23.2,6.215-33.634,0  l-4.5,8.999c-0.747,1.494-2.556,2.076-4.025,1.342c-1.482-0.741-2.083-2.543-1.342-4.025l4.946-9.893C13.376,72.714,9,63.868,9,54  c0-18.196,14.804-33,33-33c8.534,0,16.289,3.287,22.149,8.627L72,22.43V15l7.464-7.464C80.031,6.97,81,7.371,81,8.173V18h9.827  C91.63,18,92.031,18.97,91.464,19.537z"></path></svg>