<svg height='300px' width='300px'  fill="#000000" xmlns="http://www.w3.org/2000/svg" xmlns:xlink="http://www.w3.org/1999/xlink" version="1.1" x="0px" y="0px" viewBox="0 0 512 512" style="enable-background:new 0 0 512 512;" xml:space="preserve"><g><g><g><path d="M306.733,438.667H185.399c-5.522,0-10-4.478-10-10V317.83c-22.373-12.17-41.318-29.847-55.049-51.431     C105.074,242.387,97,214.585,97,186c0-82.71,67.289-150,150-150c82.71,0,150,67.29,150,150c0,28.975-8.28,57.098-23.945,81.327     c-14.087,21.789-33.47,39.489-56.321,51.501v109.839C316.733,434.189,312.256,438.667,306.733,438.667z M195.399,418.667h101.334     V312.644c0-3.868,2.23-7.389,5.729-9.042C347.742,282.207,377,236.046,377,186c0-71.682-58.318-130-130-130     c-71.683,0-130,58.318-130,130c0,49.984,27.897,94.727,72.806,116.769c3.424,1.68,5.594,5.162,5.594,8.977V418.667z"></path></g><g><path d="M272.333,476H219.8c-15.807,0-28.667-12.86-28.667-28.667s12.86-28.666,28.667-28.666h52.533     c15.807,0,28.667,12.859,28.667,28.666S288.14,476,272.333,476z M219.8,438.667c-4.779,0-8.667,3.888-8.667,8.666     c0,4.779,3.888,8.667,8.667,8.667h52.533c4.779,0,8.667-3.888,8.667-8.667c0-4.778-3.888-8.666-8.667-8.666H219.8z"></path></g><g><path d="M334.733,364H157.399c-5.522,0-10-4.478-10-10s4.478-10,10-10h177.334c5.522,0,10,4.478,10,10S340.256,364,334.733,364z"></path></g><g><path d="M334.733,401.333H157.399c-5.522,0-10-4.478-10-10s4.478-10,10-10h177.334c5.522,0,10,4.478,10,10     S340.256,401.333,334.733,401.333z"></path></g><g><path d="M247,364c-5.523,0-10-4.478-10-10v-52.548c0-5.522,4.477-10,10-10c5.522,0,10,4.478,10,10V354     C257,359.522,252.522,364,247,364z"></path></g><g><path d="M245.476,253.397c-19.107,0-37.253-8.385-49.784-23.005c-0.029-0.035-0.06-0.07-0.089-0.106     c-10.983-13.181-16.242-29.966-14.808-47.265c1.443-17.413,9.49-33.045,22.658-44.018c24.518-20.314,50.616-22.917,70.617-22.917     c7.283,0,14.184,0.385,20.856,0.758c5.773,0.322,11.227,0.626,16.194,0.626c3.369,0,6.226-0.141,8.732-0.43     c4.545-0.521,8.88,2.111,10.501,6.399c1.62,4.287,0.118,9.127-3.644,11.744c-8.305,5.777-10.539,21.432-12.905,38.006     c-3.23,22.626-6.891,48.269-26.873,64.909C275.394,247.965,260.674,253.397,245.476,253.397z M210.922,217.429     c8.725,10.149,21.315,15.969,34.554,15.969c10.453,0,20.575-3.742,28.501-10.535c0.039-0.034,0.079-0.067,0.119-0.1     c14.102-11.712,17.055-32.396,19.91-52.399c1.642-11.496,3.314-23.216,7.344-33.153c-2.459-0.114-4.969-0.254-7.538-0.397     c-6.398-0.357-13.016-0.727-19.741-0.727c-16.645,0-38.26,2.08-57.835,18.299C197.757,169.784,195.322,198.647,210.922,217.429z"></path></g><g><path d="M202.345,271.813c-0.458,0-0.922-0.031-1.389-0.096c-5.471-0.761-9.289-5.812-8.528-11.282     c3.727-26.818,17.366-53.626,39.441-77.524c3.748-4.057,10.074-4.307,14.131-0.561c4.057,3.748,4.308,10.074,0.561,14.131     c-13.453,14.564-30.328,37.959-34.323,66.708C211.542,268.191,207.257,271.813,202.345,271.813z"></path></g><g><path d="M81,431c-16.542,0-30-13.458-30-30s13.458-30,30-30s30,13.458,30,30S97.542,431,81,431z M81,391c-5.515,0-10,4.486-10,10     s4.485,10,10,10c5.514,0,10-4.486,10-10S86.514,391,81,391z"></path></g><g><path d="M421,371c-22.056,0-40-17.944-40-40s17.944-40,40-40s40,17.944,40,40S443.056,371,421,371z M421,311     c-11.028,0-20,8.972-20,20s8.972,20,20,20s20-8.972,20-20S432.028,311,421,311z"></path></g></g></g></svg>