<svg height='300px' width='300px'  fill="#000000" xmlns="http://www.w3.org/2000/svg" viewBox="0 0 64 64" x="0px" y="0px"><g><polygon points="33.87 30 32 24.238 30.13 30 24.083 30 28.974 33.547 27.104 39.304 32 35.746 36.896 39.304 35.026 33.547 39.917 30 33.87 30"></polygon><path d="M58,32a10,10,0,0,1,.742-3.252,6.009,6.009,0,0,0,.562-2.98,6.092,6.092,0,0,0-1.851-2.53,9.689,9.689,0,0,1-2.022-2.52,9.879,9.879,0,0,1-.73-3.2,6.068,6.068,0,0,0-.809-2.975,6.064,6.064,0,0,0-2.733-1.455A9.781,9.781,0,0,1,48.21,11.67a9.763,9.763,0,0,1-2.023-2.55,6.076,6.076,0,0,0-2.036-2.353,6.03,6.03,0,0,0-3.061-.122,9.939,9.939,0,0,1-3.3,0,9.628,9.628,0,0,1-2.888-1.4A6.1,6.1,0,0,0,32,4a6.1,6.1,0,0,0-2.9,1.247,9.621,9.621,0,0,1-2.889,1.4,9.933,9.933,0,0,1-3.3,0,6.051,6.051,0,0,0-3.061.122A6.069,6.069,0,0,0,17.812,9.12a9.748,9.748,0,0,1-2.022,2.551,9.807,9.807,0,0,1-2.95,1.416,6.088,6.088,0,0,0-2.733,1.455A6.069,6.069,0,0,0,9.3,17.517a9.874,9.874,0,0,1-.731,3.2,9.669,9.669,0,0,1-2.022,2.521A6.089,6.089,0,0,0,4.7,25.768a6.009,6.009,0,0,0,.562,2.98A10,10,0,0,1,6,32a10,10,0,0,1-.742,3.252,6.009,6.009,0,0,0-.562,2.98,6.092,6.092,0,0,0,1.851,2.53,9.689,9.689,0,0,1,2.022,2.52,9.879,9.879,0,0,1,.73,3.2,6.068,6.068,0,0,0,.809,2.975,6.064,6.064,0,0,0,2.733,1.455A9.781,9.781,0,0,1,15.79,52.33a9.763,9.763,0,0,1,2.023,2.55,6.076,6.076,0,0,0,2.036,2.353,6.05,6.05,0,0,0,3.061.122,17.527,17.527,0,0,1,1.92-.142,6.227,6.227,0,0,1,1.381.141,9.628,9.628,0,0,1,2.888,1.4A6.1,6.1,0,0,0,32,60a6.1,6.1,0,0,0,2.9-1.247,9.621,9.621,0,0,1,2.889-1.4,10.041,10.041,0,0,1,3.3,0,6.039,6.039,0,0,0,3.061-.122,6.059,6.059,0,0,0,2.036-2.353,9.772,9.772,0,0,1,2.023-2.551,9.807,9.807,0,0,1,2.95-1.416,6.088,6.088,0,0,0,2.733-1.455,6.069,6.069,0,0,0,.808-2.975,9.874,9.874,0,0,1,.731-3.2,9.669,9.669,0,0,1,2.022-2.521,6.089,6.089,0,0,0,1.85-2.529,6.009,6.009,0,0,0-.562-2.98A10,10,0,0,1,58,32Zm-3.808-9.153a23.93,23.93,0,0,1,1,2.965l-1.932.515a21.869,21.869,0,0,0-.919-2.717Zm-3.115-5.411a24.316,24.316,0,0,1,1.734,2.6l-1.733,1a22.339,22.339,0,0,0-1.59-2.387Zm-4.4-4.427a24.364,24.364,0,0,1,2.343,2.07L47.6,16.489a21.875,21.875,0,0,0-2.149-1.9ZM41.29,9.864a23.9,23.9,0,0,1,2.8,1.4l-1.009,1.726a22.167,22.167,0,0,0-2.562-1.279ZM35.268,8.221a23.9,23.9,0,0,1,3.064.624l-.526,1.929A21.873,21.873,0,0,0,35,10.2ZM32,8h.143v2H32a22.635,22.635,0,0,0-2.728.166l-.243-1.984A24.414,24.414,0,0,1,32,8Zm-6.043.768.5,1.935a21.893,21.893,0,0,0-2.721.9l-.753-1.853A23.678,23.678,0,0,1,25.957,8.768Zm-5.789,2.348.987,1.738a22.3,22.3,0,0,0-2.4,1.577l-1.2-1.6A24.352,24.352,0,0,1,20.168,11.116Zm-4.983,3.759,1.4,1.428a22.213,22.213,0,0,0-1.911,2.136L13.1,17.207A24.217,24.217,0,0,1,15.185,14.875Zm-3.849,4.911,1.721,1.02a21.938,21.938,0,0,0-1.3,2.554l-1.839-.787A24.134,24.134,0,0,1,11.336,19.786ZM8.884,25.523l1.926.539a22.119,22.119,0,0,0-.589,2.806l-1.98-.283A24.126,24.126,0,0,1,8.884,25.523Zm-.719,9.3A24.166,24.166,0,0,1,8,32l0-.3,2,.022,0,.28a22.372,22.372,0,0,0,.151,2.586ZM9.7,40.877A24.1,24.1,0,0,1,8.73,37.9l1.94-.49a21.8,21.8,0,0,0,.884,2.728Zm3.048,5.45a24.238,24.238,0,0,1-1.7-2.624l1.745-.976a22.28,22.28,0,0,0,1.561,2.407Zm4.346,4.481a24.292,24.292,0,0,1-2.318-2.1l1.436-1.393a22.046,22.046,0,0,0,2.125,1.925Zm5.348,3.21a23.994,23.994,0,0,1-2.779-1.431l1.03-1.715a21.939,21.939,0,0,0,2.545,1.312Zm6,1.72a24.164,24.164,0,0,1-3.056-.662l.55-1.924a22.15,22.15,0,0,0,2.8.608ZM32,56l-.448,0,.041-2L32,54a22.4,22.4,0,0,0,2.457-.135l.218,1.989A24.848,24.848,0,0,1,32,56Zm5.756-.7-.479-1.942a21.876,21.876,0,0,0,2.735-.867l.727,1.863A23.807,23.807,0,0,1,37.756,55.305ZM32,51A19,19,0,1,1,51,32,19.021,19.021,0,0,1,32,51Zm11.573,2.03-.966-1.752a22.116,22.116,0,0,0,2.416-1.545l1.185,1.612A24.349,24.349,0,0,1,43.573,53.03Zm5.029-3.7-1.384-1.443a22.063,22.063,0,0,0,1.938-2.115l1.559,1.254A24.274,24.274,0,0,1,48.6,49.331Zm3.909-4.862L50.8,43.428a22,22,0,0,0,1.327-2.537l1.829.808A23.971,23.971,0,0,1,52.511,44.469Zm2.523-5.708L53.115,38.2a22.084,22.084,0,0,0,.624-2.8l1.976.307A24,24,0,0,1,55.034,38.761Zm.959-6.168-2-.047c0-.182.006-.363.006-.546a22.124,22.124,0,0,0-.185-2.861l1.984-.258A24.323,24.323,0,0,1,56,32C56,32.2,56,32.4,55.993,32.593Z"></path><path d="M32,15A17,17,0,1,0,49,32,17.019,17.019,0,0,0,32,15Zm8.7,29.54L32,38.219,23.3,44.54l3.323-10.228L17.917,28H28.676L32,17.758,35.324,28H46.083l-8.706,6.312Z"></path></g></svg>