<svg xmlns="http://www.w3.org/2000/svg" xmlns:xlink="http://www.w3.org/1999/xlink" width="1034.6666671964858" height="710.3333391613428" style=""><rect id="backgroundrect" width="100%" height="100%" x="0" y="0" fill="none" stroke="none" class="" style=""/><g class="currentLayer" style=""><title>Layer 1</title><g id="svg_2" class=""><g transform="matrix(-1.579108718346649,0,0,1.579108718346649,2311.0041641363096,311.75697554844567) " style="fill:#000000" id="svg_1"><svg xmlns="http://www.w3.org/2000/svg" xmlns:xlink="http://www.w3.org/1999/xlink" fill="#000000" version="1.1" x="617.2715473358525" y="-452.29336429770217" viewBox="0 0 100 100" enable-background="new 0 0 100 100" xml:space="preserve" id="svg_3"><polygon fill-rule="evenodd" clip-rule="evenodd" points="84.484,66.595 83.987,68.447 77.595,68.447 78.091,66.595 " id="svg_4"/><path fill-rule="evenodd" clip-rule="evenodd" d="M84.685,53.918L84.685,53.918c1.64,0.439,2.622,2.141,2.183,3.781l-1.06,3.956  h-6.393l1.488-5.554C81.343,54.461,83.044,53.479,84.685,53.918z" id="svg_5"/><path fill-rule="evenodd" clip-rule="evenodd" d="M19.871,37.572l68.955-1.234C94.023,36.244,95,38.099,95,42.513  c0,0.678-0.558,1.235-1.235,1.235H22c-3.568,0-9.063-1.121-8.114-3.148C14.748,38.757,16.683,37.63,19.871,37.572z" id="svg_6"/><polygon fill-rule="evenodd" clip-rule="evenodd" points="88.207,44.982 90.678,44.982 90.678,68.447 88.207,68.447 88.207,65.36   51.157,65.36 51.157,68.447 48.687,68.447 48.687,44.982 51.157,44.982 51.157,62.89 88.207,62.89 " id="svg_7"/><path fill-rule="evenodd" clip-rule="evenodd" d="M90.678,69.683h-41.99v14.82c0,0.679,0.556,1.234,1.235,1.234h9.263  c0-5.797,4.699-10.497,10.497-10.497s10.497,4.7,10.497,10.497h6.793c2.037,0,3.705-1.667,3.705-3.705V69.683z" id="svg_8"/><path fill-rule="evenodd" clip-rule="evenodd" d="M69.683,76.475c5.115,0,9.263,4.147,9.263,9.263c0,5.116-4.147,9.263-9.263,9.263  s-9.263-4.146-9.263-9.263C60.42,80.622,64.567,76.475,69.683,76.475L69.683,76.475z M69.683,80.798c-2.729,0-4.94,2.212-4.94,4.939  c0,2.729,2.212,4.94,4.94,4.94c2.728,0,4.94-2.212,4.94-4.94C74.623,83.01,72.41,80.798,69.683,80.798z" id="svg_9"/><path fill-rule="evenodd" clip-rule="evenodd" d="M14.262,76.475c0.22,0,0.438,0.009,0.655,0.023l0.274,4.387  c-0.301-0.057-0.611-0.087-0.929-0.087c-2.728,0-4.94,2.212-4.94,4.939c0,2.729,2.212,4.94,4.94,4.94  c2.302,0,4.236-1.574,4.785-3.705h0h4.395C22.839,91.504,18.959,95,14.262,95C9.147,95,5,90.854,5,85.737  C5,80.622,9.147,76.475,14.262,76.475z" id="svg_10"/><path fill-rule="evenodd" clip-rule="evenodd" d="M47.453,77.093H36.03l-8.345-13.756l0.006,0.098l1.235,20.996  c0.001,0.023,0.002,0.048,0.003,0.072h18.524V77.093z" id="svg_11"/><path fill-rule="evenodd" clip-rule="evenodd" d="M28.37,44.982l-1.787,14.564c-0.167,1.354-0.202,2.652-0.125,3.961l1.235,20.995  c0.04,0.677-0.556,1.234-1.235,1.234h-7.41c-1.358,0-2.385-1.114-2.47-2.47l-0.508-8.133c-0.458-0.032-0.928-0.051-1.407-0.051  c-4.946,0-8.956,1.981-8.956,0c0-1.547,5.33-4.292,10.021-5.422l-0.385-6.154c-0.039-0.616,0.027-1.886,0.65-3.358l6.419-15.167  H28.37z" id="svg_12"/></svg></g></g></g></svg>