<svg xmlns="http://www.w3.org/2000/svg" xmlns:xlink="http://www.w3.org/1999/xlink" height="106.45454533632142" width="171.99999978325582" fill="#000000" version="1.1" enable-background="new 0 0 100 100" xml:space="preserve" style=""><rect id="backgroundrect" width="100%" height="100%" x="0" y="0" fill="none" stroke="none" class="" style=""/><g class="currentLayer" style=""><title>Layer 1</title><g id="svg_1" class=""><path fill="#000000" d="M38.9411302736844,70.68981462383307 c-8.869110111702692,0 -15.851175518787791,7.170769877546857 -15.851175518787791,15.851175518787791 s7.170769877546857,15.851175518787791 15.851175518787791,15.851175518787791 s15.851175518787791,-7.170769877546857 15.851175518787791,-15.851175518787791 S47.62153591492534,70.68981462383307 38.9411302736844,70.68981462383307 zM38.9411302736844,95.59880472478531 c-4.906316232005745,0 -8.869110111702692,-3.9627938796969473 -8.869110111702692,-8.869110111702692 s3.9627938796969473,-8.869110111702692 8.869110111702692,-8.869110111702692 s8.869110111702692,3.9627938796969473 8.869110111702692,8.869110111702692 S43.84744650569015,95.59880472478531 38.9411302736844,95.59880472478531 z" id="svg_2"/><path fill="#000000" d="M123.66943751101437,70.68981462383307 c-8.869110111702692,0 -15.851175518787791,7.170769877546857 -15.851175518787791,15.851175518787791 s7.170769877546857,15.851175518787791 15.851175518787791,15.851175518787791 s15.851175518787791,-7.170769877546857 15.851175518787791,-15.851175518787791 S132.53854762271706,70.68981462383307 123.66943751101437,70.68981462383307 zM123.66943751101437,95.59880472478531 c-4.906316232005745,0 -8.869110111702692,-3.9627938796969473 -8.869110111702692,-8.869110111702692 c0,-4.906316232005745 3.9627938796969473,-8.869110111702692 8.869110111702692,-8.869110111702692 c4.906316232005745,0 8.869110111702692,3.9627938796969473 8.869110111702692,8.869110111702692 C132.7272520931788,91.63601084508836 128.76445821348187,95.59880472478531 123.66943751101437,95.59880472478531 z" id="svg_3"/><path fill="#000000" d="M167.44887465814253,62.38681792351566 h-8.114292229855653 c-1.5096357636940754,0 -2.830567056926391,1.3209312932323163 -2.830567056926391,2.830567056926391 v4.340202820620466 c0,1.5096357636940754 1.3209312932323163,2.830567056926391 2.830567056926391,2.830567056926391 h8.114292229855653 c1.5096357636940754,0 2.830567056926391,-1.3209312932323163 2.830567056926391,-2.830567056926391 v-4.340202820620466 C170.27944171506894,63.70774921674797 168.95851042183662,62.38681792351566 167.44887465814253,62.38681792351566 z" id="svg_4"/><path fill="#000000" d="M167.6375791286043,47.66786922749842 L138.0109772661081,8.606043841914225 c-2.0757491750793533,-2.6418625864646317 -4.906316232005745,-4.1514983501587075 -7.9255877593938955,-4.1514983501587075 H17.051411700120315 c-4.717611761543985,0 -8.869110111702692,3.774089409235188 -10.190041404935007,9.05781458216445 C0.6341227699472451,39.55357699764277 0.06800935856196588,61.820704512130376 0.6341227699472451,74.65260850353002 c0.1887044704617595,6.604656466161579 4.906316232005745,11.888381639090841 10.567450345858527,11.888381639090841 h6.793360936623339 c0,-11.510972698167324 9.43522352308797,-20.946196221255292 20.946196221255292,-20.946196221255292 s20.946196221255292,9.43522352308797 20.946196221255292,20.946196221255292 h43.024619265281146 c0,-11.510972698167324 9.43522352308797,-20.946196221255292 20.946196221255292,-20.946196221255292 c11.510972698167324,0 20.946196221255292,9.43522352308797 20.946196221255292,20.946196221255292 h15.096357636940752 c5.472429643391022,0 9.81263246401149,-4.906316232005745 10.567450345858527,-10.944859286782044 h-12.077086109552601 c-2.830567056926391,0 -5.283725172929263,-2.4531581160028724 -5.283725172929263,-5.283725172929263 v-5.661134113852782 c0,-2.830567056926391 2.4531581160028724,-5.283725172929263 5.283725172929263,-5.283725172929263 H170.27944171506894 v-3.5853849387734287 C170.27944171506894,52.95159440042769 169.33591936276014,49.93232287303954 167.6375791286043,47.66786922749842 zM49.13117167861942,37.289123352101655 c0,2.6418625864646317 -2.2644536455411126,4.906316232005745 -4.906316232005745,4.906316232005745 H25.354408400437723 c-2.6418625864646317,0 -4.906316232005745,-2.2644536455411126 -4.906316232005745,-4.906316232005745 V17.85256289454044 c0,-2.6418625864646317 2.2644536455411126,-4.906316232005745 4.906316232005745,-4.906316232005745 h19.059151516637698 c2.6418625864646317,0 4.906316232005745,2.2644536455411126 4.906316232005745,4.906316232005745 V37.289123352101655 zM84.9850210663537,37.289123352101655 c0,2.6418625864646317 -2.2644536455411126,4.906316232005745 -4.906316232005745,4.906316232005745 H61.01955331771026 c-2.6418625864646317,0 -4.906316232005745,-2.2644536455411126 -4.906316232005745,-4.906316232005745 V17.85256289454044 c0,-2.6418625864646317 2.2644536455411126,-4.906316232005745 4.906316232005745,-4.906316232005745 h19.059151516637698 c2.6418625864646317,0 4.906316232005745,2.2644536455411126 4.906316232005745,4.906316232005745 V37.289123352101655 zM107.81826199222658,52.574185459504164 h-5.0950207024675045 c-0.9435223523087973,0 -1.698340234155835,-0.7548178818470375 -1.698340234155835,-1.698340234155835 s0.7548178818470375,-1.698340234155835 1.698340234155835,-1.698340234155835 h5.0950207024675045 c0.9435223523087973,0 1.698340234155835,0.7548178818470375 1.698340234155835,1.698340234155835 S108.76178434453537,52.574185459504164 107.81826199222658,52.574185459504164 zM144.04952032088437,42.00673511364564 H103.47805917160613 c-2.6418625864646317,0 -4.906316232005745,-2.2644536455411126 -4.906316232005745,-4.906316232005745 V17.663858424078676 c0,-2.6418625864646317 2.2644536455411126,-4.906316232005745 4.906316232005745,-4.906316232005745 h26.041216923722796 c1.5096357636940754,0 3.0192715273881503,0.7548178818470375 3.9627938796969473,1.8870447046175942 l14.530244225555474,19.436560457561217 C150.27676784612248,37.47782782256341 148.01231420058133,42.00673511364564 144.04952032088437,42.00673511364564 z" id="svg_5"/></g></g></svg>