<svg height='300px' width='300px'  fill="#000000" xmlns="http://www.w3.org/2000/svg" data-name="Layer 1" viewBox="0 0 64 64" x="0px" y="0px"><title>diversity-difference-variety-choose-geometry</title><path d="M34.4165,27h-.19506a3,3,0,1,0-4.44288,0H29.5835A2.58346,2.58346,0,0,0,27,29.58344V34l2,1v7h6V35l2-1V29.58344A2.58346,2.58346,0,0,0,34.4165,27ZM33,32H31V29h2Z"></path><path d="M50.00293,26c-.37061,0-.73438-.0166-1.09424-.04883l.17676-1.99219a10.338,10.338,0,0,0,1.84814-.00293l.18457,1.99219Q50.56666,25.99806,50.00293,26Zm-3.272-.45117a11.935,11.935,0,0,1-2.06641-.79785l.88965-1.791a9.92711,9.92711,0,0,0,1.71973.66309Zm6.563-.00586-.54786-1.92383a9.86921,9.86921,0,0,0,1.71778-.668l.89453,1.78906A11.92351,11.92351,0,0,1,53.294,25.543Zm-10.5127-1.95606a12.23294,12.23294,0,0,1-1.63672-1.4873l1.47461-1.35156a10.11967,10.11967,0,0,0,1.36621,1.24121Zm14.456-.01367-1.206-1.5957a10.04979,10.04979,0,0,0,1.3623-1.24316l1.47852,1.3457A12.02417,12.02417,0,0,1,57.2373,23.57324Zm-17.43017-3.2373a11.9795,11.9795,0,0,1-.9917-1.97949l1.86328-.72657a9.9147,9.9147,0,0,0,.82568,1.64746Zm20.39844-.02149-1.69922-1.05468a10.03289,10.03289,0,0,0,.82275-1.64942l1.86426.72266A11.97887,11.97887,0,0,1,60.20557,20.31445Zm-21.999-4.08691A12.102,12.102,0,0,1,38,14.02539l2-.00391a10.06472,10.06472,0,0,0,.17236,1.83692Zm23.5918-.02539-1.9668-.36524A10.062,10.062,0,0,0,60,14l2.00049-.0459-.001.0791A11.9656,11.9656,0,0,1,61.79834,16.20215ZM40.16455,12.18262l-1.96777-.35938a11.93456,11.93456,0,0,1,.60058-2.13379l1.86621.72071A9.86606,9.86606,0,0,0,40.16455,12.18262Zm19.65967-.06153a9.96008,9.96008,0,0,0-.51123-1.77148l1.8623-.73047a12.01046,12.01046,0,0,1,.61377,2.127ZM41.48291,8.75684,39.78076,7.70605A12.07733,12.07733,0,0,1,41.1123,5.9375l1.4795,1.3457A10.01164,10.01164,0,0,0,41.48291,8.75684ZM58.48438,8.7041a10.07735,10.07735,0,0,0-1.11866-1.46777l1.47266-1.35352A12.11023,12.11023,0,0,1,60.17969,7.6416ZM43.95264,6.03516l-1.21-1.5918a12.01878,12.01878,0,0,1,1.87744-1.17188l.89746,1.78711A10.07268,10.07268,0,0,0,43.95264,6.03516Zm12.04492-.03809a9.98516,9.98516,0,0,0-1.5708-.9668l.88672-1.793a12.07991,12.07991,0,0,1,1.88525,1.16016ZM47.23438,4.38672l-.55274-1.92188a11.86873,11.86873,0,0,1,2.17578-.41113l.1875,1.99024A9.92766,9.92766,0,0,0,47.23438,4.38672Zm5.4707-.0166a10.0224,10.0224,0,0,0-1.813-.33106l.17578-1.99218a12.03992,12.03992,0,0,1,2.17822.39746Z"></path><path d="M14.00293,26c-.37061,0-.73438-.0166-1.09424-.04883l.17676-1.99219a10.338,10.338,0,0,0,1.84814-.00293l.18457,1.99219Q14.56666,25.99806,14.00293,26Zm-3.272-.45117A11.935,11.935,0,0,1,8.66455,24.751L9.5542,22.96a9.92711,9.92711,0,0,0,1.71973.66309Zm6.563-.00586-.54786-1.92383a9.86921,9.86921,0,0,0,1.71778-.668l.89453,1.78906A11.92351,11.92351,0,0,1,17.294,25.543ZM6.78125,23.58691a12.23294,12.23294,0,0,1-1.63672-1.4873l1.47461-1.35156a10.11967,10.11967,0,0,0,1.36621,1.24121Zm14.45605-.01367-1.20605-1.5957a10.04979,10.04979,0,0,0,1.3623-1.24316l1.47852,1.3457A12.02417,12.02417,0,0,1,21.2373,23.57324ZM3.80713,20.33594a11.9795,11.9795,0,0,1-.9917-1.97949l1.86328-.72657a9.9147,9.9147,0,0,0,.82568,1.64746Zm20.39844-.02149-1.69922-1.05468a10.03289,10.03289,0,0,0,.82275-1.64942l1.86426.72266A11.97887,11.97887,0,0,1,24.20557,20.31445Zm-21.999-4.08691A12.102,12.102,0,0,1,2,14.02539l2-.00391a10.06472,10.06472,0,0,0,.17236,1.83692Zm23.5918-.02539-1.9668-.36524A10.062,10.062,0,0,0,24,14l2.00049-.0459-.001.0791A11.9656,11.9656,0,0,1,25.79834,16.20215ZM4.16455,12.18262l-1.96777-.35938a11.93456,11.93456,0,0,1,.60058-2.13379l1.86621.72071A9.86606,9.86606,0,0,0,4.16455,12.18262Zm19.65967-.06153a9.96008,9.96008,0,0,0-.51123-1.77148l1.8623-.73047a12.01046,12.01046,0,0,1,.61377,2.127ZM5.48291,8.75684,3.78076,7.70605A12.07733,12.07733,0,0,1,5.1123,5.9375L6.5918,7.2832A10.01164,10.01164,0,0,0,5.48291,8.75684ZM22.48438,8.7041a10.07735,10.07735,0,0,0-1.11866-1.46777l1.47266-1.35352A12.11023,12.11023,0,0,1,24.17969,7.6416ZM7.95264,6.03516l-1.21-1.5918A12.01878,12.01878,0,0,1,8.62012,3.27148l.89746,1.78711A10.07268,10.07268,0,0,0,7.95264,6.03516Zm12.04492-.03809a9.98516,9.98516,0,0,0-1.5708-.9668l.88672-1.793a12.07991,12.07991,0,0,1,1.88525,1.16016ZM11.23438,4.38672l-.55274-1.92188a11.86873,11.86873,0,0,1,2.17578-.41113l.1875,1.99024A9.92766,9.92766,0,0,0,11.23438,4.38672Zm5.4707-.0166a10.0224,10.0224,0,0,0-1.813-.33106l.17578-1.99218a12.03992,12.03992,0,0,1,2.17822.39746Z"></path><path d="M50.00293,62c-.37061,0-.73438-.0166-1.09424-.04883l.17676-1.99219a10.338,10.338,0,0,0,1.84814-.00293l.18457,1.99219Q50.56666,61.99806,50.00293,62Zm-3.272-.45117a11.935,11.935,0,0,1-2.06641-.79785l.88965-1.791a9.92711,9.92711,0,0,0,1.71973.66309Zm6.563-.00586-.54786-1.92383a9.86921,9.86921,0,0,0,1.71778-.668l.89453,1.78906A11.92351,11.92351,0,0,1,53.294,61.543Zm-10.5127-1.95606a12.23294,12.23294,0,0,1-1.63672-1.4873l1.47461-1.35156a10.11967,10.11967,0,0,0,1.36621,1.24121Zm14.456-.01367-1.206-1.5957a10.04979,10.04979,0,0,0,1.3623-1.24316l1.47852,1.3457A12.02417,12.02417,0,0,1,57.2373,59.57324Zm-17.43017-3.2373a11.9795,11.9795,0,0,1-.9917-1.97949l1.86328-.72657a9.9147,9.9147,0,0,0,.82568,1.64746Zm20.39844-.02149-1.69922-1.05468a10.03289,10.03289,0,0,0,.82275-1.64942l1.86426.72266A11.97887,11.97887,0,0,1,60.20557,56.31445Zm-21.999-4.08691A12.102,12.102,0,0,1,38,50.02539l2-.00391a10.06472,10.06472,0,0,0,.17236,1.83692Zm23.5918-.02539-1.9668-.36524A10.062,10.062,0,0,0,60,50l2.00049-.0459-.001.0791A11.9656,11.9656,0,0,1,61.79834,52.20215ZM40.16455,48.18262l-1.96777-.35938a11.93456,11.93456,0,0,1,.60058-2.13379l1.86621.72071A9.86606,9.86606,0,0,0,40.16455,48.18262Zm19.65967-.06153a9.96008,9.96008,0,0,0-.51123-1.77148l1.8623-.73047a12.01046,12.01046,0,0,1,.61377,2.127ZM41.48291,44.75684l-1.70215-1.05079A12.07733,12.07733,0,0,1,41.1123,41.9375l1.4795,1.3457A10.01164,10.01164,0,0,0,41.48291,44.75684Zm17.00147-.05274a10.07735,10.07735,0,0,0-1.11866-1.46777l1.47266-1.35352a12.11023,12.11023,0,0,1,1.34131,1.75879ZM43.95264,42.03516l-1.21-1.5918a12.01878,12.01878,0,0,1,1.87744-1.17188l.89746,1.78711A10.07268,10.07268,0,0,0,43.95264,42.03516Zm12.04492-.03809a9.98516,9.98516,0,0,0-1.5708-.9668l.88672-1.793a12.07991,12.07991,0,0,1,1.88525,1.16016Zm-8.76318-1.61035-.55274-1.92188a11.86873,11.86873,0,0,1,2.17578-.41113l.1875,1.99024A9.92766,9.92766,0,0,0,47.23438,40.38672Zm5.4707-.0166a10.0224,10.0224,0,0,0-1.813-.33106l.17578-1.99218a12.03992,12.03992,0,0,1,2.17822.39746Z"></path><path d="M14.00293,62c-.37061,0-.73438-.0166-1.09424-.04883l.17676-1.99219a10.338,10.338,0,0,0,1.84814-.00293l.18457,1.99219Q14.56666,61.99806,14.00293,62Zm-3.272-.45117A11.935,11.935,0,0,1,8.66455,60.751L9.5542,58.96a9.92711,9.92711,0,0,0,1.71973.66309Zm6.563-.00586-.54786-1.92383a9.86921,9.86921,0,0,0,1.71778-.668l.89453,1.78906A11.92351,11.92351,0,0,1,17.294,61.543ZM6.78125,59.58691a12.23294,12.23294,0,0,1-1.63672-1.4873l1.47461-1.35156a10.11967,10.11967,0,0,0,1.36621,1.24121Zm14.45605-.01367-1.20605-1.5957a10.04979,10.04979,0,0,0,1.3623-1.24316l1.47852,1.3457A12.02417,12.02417,0,0,1,21.2373,59.57324ZM3.80713,56.33594a11.9795,11.9795,0,0,1-.9917-1.97949l1.86328-.72657a9.9147,9.9147,0,0,0,.82568,1.64746Zm20.39844-.02149-1.69922-1.05468a10.03289,10.03289,0,0,0,.82275-1.64942l1.86426.72266A11.97887,11.97887,0,0,1,24.20557,56.31445Zm-21.999-4.08691A12.102,12.102,0,0,1,2,50.02539l2-.00391a10.06472,10.06472,0,0,0,.17236,1.83692Zm23.5918-.02539-1.9668-.36524A10.062,10.062,0,0,0,24,50l2.00049-.0459-.001.0791A11.9656,11.9656,0,0,1,25.79834,52.20215ZM4.16455,48.18262l-1.96777-.35938a11.93456,11.93456,0,0,1,.60058-2.13379l1.86621.72071A9.86606,9.86606,0,0,0,4.16455,48.18262Zm19.65967-.06153a9.96008,9.96008,0,0,0-.51123-1.77148l1.8623-.73047a12.01046,12.01046,0,0,1,.61377,2.127ZM5.48291,44.75684,3.78076,43.70605A12.07733,12.07733,0,0,1,5.1123,41.9375l1.4795,1.3457A10.01164,10.01164,0,0,0,5.48291,44.75684Zm17.00147-.05274a10.07735,10.07735,0,0,0-1.11866-1.46777l1.47266-1.35352a12.11023,12.11023,0,0,1,1.34131,1.75879ZM7.95264,42.03516l-1.21-1.5918a12.01878,12.01878,0,0,1,1.87744-1.17188l.89746,1.78711A10.07268,10.07268,0,0,0,7.95264,42.03516Zm12.04492-.03809a9.98516,9.98516,0,0,0-1.5708-.9668l.88672-1.793a12.07991,12.07991,0,0,1,1.88525,1.16016Zm-8.76318-1.61035-.55274-1.92188a11.86873,11.86873,0,0,1,2.17578-.41113l.1875,1.99024A9.92766,9.92766,0,0,0,11.23438,40.38672Zm5.4707-.0166a10.0224,10.0224,0,0,0-1.813-.33106l.17578-1.99218a12.03992,12.03992,0,0,1,2.17822.39746Z"></path><path d="M14,7a7,7,0,1,0,7,7A7,7,0,0,0,14,7Zm0,5a2.00229,2.00229,0,0,0-2,2H10a4.00427,4.00427,0,0,1,4-4Z"></path><rect x="9" y="45" width="10" height="10"></rect><polygon points="50 7 44 18 56 18 50 7"></polygon><polygon points="50 44 51.416 48.202 56 48.202 52.292 50.798 53.708 55 50 52.403 46.292 55 47.708 50.798 44 48.202 48.584 48.202 50 44"></polygon></svg>